<svg width="415" height="156" viewBox="0 0 415 156" fill="none" xmlns="http://www.w3.org/2000/svg">
<path d="M61.9469 71.7261C62.2103 71.8879 62.3039 72.1442 62.2278 72.4815C62.1459 72.8255 61.9996 73.183 61.7831 73.5607C61.5607 73.9384 61.3617 74.2622 61.1745 74.532C61.0808 74.6399 61.0165 74.7344 60.9872 74.8018C59.3779 77.3784 57.9793 80.0832 56.7972 82.9229C55.6093 85.7423 54.5032 88.6157 53.4733 91.5296C53.0344 92.6627 52.6131 93.7959 52.2093 94.9291C51.2554 97.4113 50.3249 99.9069 49.4237 102.43C47.8905 106.726 46.2695 110.996 44.5549 115.245C43.9463 116.736 43.2675 118.186 42.5184 119.589C41.9098 120.756 40.9793 121.323 39.7329 121.289C38.7029 121.323 38.0709 120.776 37.8368 119.643C37.6145 118.672 37.4974 117.673 37.4857 116.648C37.3453 112.83 37.4213 109.02 37.7198 105.209C37.9188 102.564 38.1002 99.9339 38.2582 97.3303C38.4103 94.5041 38.6093 91.6712 38.8434 88.8315C39.3115 82.3967 39.8382 75.9552 40.4351 69.5137C41.1198 62.1211 41.822 54.7555 42.5418 47.4169C43.8175 34.952 44.9587 22.4534 45.9594 9.9143C46.0062 9.12512 46.012 8.4776 45.9828 7.97172C45.9652 7.47258 45.8716 7.28372 45.7019 7.40513C45.5263 7.53329 45.2688 8.1336 44.9294 9.21281C41.7108 19.897 38.738 30.6621 36.011 41.5082C35.8998 41.9061 35.8062 42.3041 35.7301 42.6953C34.0916 49.1368 32.4355 55.5581 30.7677 61.9592C30.1415 64.4414 29.4159 66.964 28.5907 69.5137C27.7773 72.0701 26.841 74.4713 25.7818 76.7174C25.4541 77.3852 25.021 77.8371 24.4943 78.0664C23.9794 78.3025 23.3942 78.3767 22.7388 78.2823C22.0658 78.2148 21.5684 77.8371 21.2407 77.1491C20.9715 76.5016 20.8076 75.8001 20.7491 75.0446C20.6672 74.1475 20.5852 73.2504 20.4916 72.3466C20.2868 70.3366 20.1171 68.34 19.9766 66.357C19.5845 60.7991 19.0754 55.2276 18.4551 49.6292C17.829 44.0173 17.0272 38.4864 16.0441 33.0364C15.7632 31.6536 15.3536 31.6874 14.8269 33.1443C14.3119 34.6012 13.715 37.0497 13.0479 40.4829C12.3749 43.9027 11.6668 47.8418 10.9178 52.3003C10.1687 56.7655 9.44309 61.3049 8.74085 65.9253C8.05032 70.5524 7.41245 74.7748 6.8214 78.606C5.96116 84.5552 5.38182 88.3459 5.08922 89.9647C4.83759 91.1518 4.49232 92.2648 4.05928 93.3103C3.85446 93.7959 3.57356 94.1062 3.21659 94.2546C2.87133 94.4164 2.47924 94.4704 2.0462 94.4164C1.18596 94.2883 0.65343 93.7015 0.454464 92.6627C0.372535 92.1231 0.337424 91.57 0.337424 91.0169C0.302313 90.5853 0.290609 90.1401 0.290609 89.6949C0.208682 87.9682 0.156013 86.2212 0.126753 84.4607C-0.0956214 70.9706 -0.025397 57.4737 0.337424 43.9634C0.571503 35.4241 0.788025 26.8512 0.992845 18.2512C0.992845 17.3339 0.992845 16.4098 0.992845 15.4722C0.957734 14.5954 0.957734 13.705 0.992845 12.8012C1.00455 12.0997 1.22692 11.6141 1.64827 11.3442C2.06961 11.0744 2.56702 11.0879 3.14637 11.3712C3.36289 11.4657 3.50919 11.6073 3.59112 11.8029C3.68475 11.985 3.73742 12.2009 3.75497 12.4504C4.00076 14.8112 4.08854 17.1652 4.01246 19.5193C3.97735 20.9425 3.94224 22.3522 3.89542 23.7552C3.80179 27.6403 3.68475 31.5187 3.5443 35.3837C3.3863 40.3683 3.28682 45.3529 3.24 50.3307C3.17563 54 3.1054 57.6828 3.02933 61.3656C2.9474 65.271 2.91814 69.1629 2.9357 73.0481C2.9357 75.7124 2.92399 78.4172 2.91229 81.1691C2.91229 81.331 2.92399 81.5738 2.95911 81.8976C2.98837 82.2214 3.03518 82.5721 3.09955 82.9498C3.15807 83.3073 3.22244 83.5974 3.28682 83.8132C3.36289 84.0291 3.45067 84.083 3.5443 83.9751C3.63793 83.8672 3.73157 83.5029 3.8252 82.8959C4.05928 81.1691 4.32847 79.2198 4.64447 77.0412C5.3116 71.9352 6.11917 66.2963 7.05548 60.1245C7.9918 53.9596 9.04515 48.1386 10.2155 42.6683C11.3976 37.1846 12.6792 32.9285 14.0544 29.9067C14.6162 28.7937 15.3185 28.2541 16.1611 28.2878C17.0038 28.3283 17.6827 28.9286 18.1976 30.0955C18.8823 31.9504 19.4617 34.2235 19.9298 36.9215C20.398 39.6061 20.7783 42.3985 21.0768 45.3124C21.387 48.2128 21.662 50.9243 21.8961 53.4604C22.0014 54.8634 22.1126 56.1247 22.2238 57.2377C22.3759 59.0386 22.5281 60.6911 22.6685 62.202C22.9962 65.7634 23.2888 68.5356 23.558 70.5119C23.8389 72.495 24.2017 73.4798 24.6582 73.4798C25.1264 73.4798 25.7642 72.2522 26.5776 69.7835C27.3852 67.3215 28.4854 63.4026 29.8782 58.0201C31.1246 53.0422 32.3009 48.2465 33.4127 43.6396C34.8933 37.5421 36.4207 31.485 38.0007 25.4549C39.5749 19.4316 41.4299 13.1519 43.5718 6.6227C44.2096 4.73409 44.865 3.18272 45.538 1.95512C46.2227 0.71403 46.884 0.0665039 47.5277 0.0125433C47.7735 -0.0211815 48.0251 0.0125434 48.2767 0.120464C48.5225 0.228385 48.7449 0.552148 48.9322 1.09175C49.1311 1.63136 49.2423 2.5352 49.2599 3.78978C49.3067 5.89424 49.2657 7.9987 49.1428 10.1032C49.0141 12.2076 48.8736 14.3121 48.7215 16.4165C48.7039 16.6728 48.6981 16.9022 48.6981 17.118C47.791 27.9101 46.7786 38.6752 45.6551 49.4134C44.9528 56.4283 44.274 63.4431 43.6186 70.458C43.6186 70.6064 43.601 70.7817 43.5718 70.9976C42.9749 77.5268 42.4248 84.056 41.9098 90.5853C41.4709 96.3388 41.073 102.092 40.716 107.853C40.6809 108.352 40.6575 108.878 40.6458 109.417C40.5521 110.888 40.4878 112.365 40.4585 113.842C40.4585 114.382 40.4585 114.901 40.4585 115.407C40.441 115.549 40.4585 115.677 40.5053 115.785C40.5521 115.893 40.6575 115.947 40.833 115.947C40.8799 115.947 40.9325 115.92 40.9969 115.866C41.073 115.825 41.1256 115.765 41.1608 115.677C42.7993 111.771 44.3969 107.88 45.9594 103.994C47.4224 100.251 48.9205 96.5074 50.4537 92.7707C51.9986 89.0474 53.6371 85.3511 55.3693 81.6818C56.7738 78.5925 58.0729 76.1238 59.2784 74.2892C60.4781 72.441 61.3676 71.5844 61.9469 71.7261Z" fill="#551C1E"/>
<path d="M81.5122 72.0229C81.167 73.21 80.4881 74.586 79.4757 76.1509C78.475 77.7022 77.2169 78.7005 75.7071 79.1457C74.1914 79.5774 72.8806 79.5167 71.7745 78.9568C70.6627 78.3835 70.0541 76.8726 69.9487 74.4241C68.6964 77.2166 67.5026 79.004 66.3673 79.7932C65.2437 80.5891 64.0616 80.8859 62.8327 80.6836C61.44 80.434 60.5037 79.8134 60.0238 78.8219C59.5264 77.8371 59.3625 76.704 59.5322 75.4224C59.6902 74.1274 60.0238 72.8863 60.5388 71.6991C60.9425 70.802 61.5043 69.9724 62.2241 69.217C62.9556 68.4615 63.7222 67.8679 64.5181 67.4363C65.5012 66.8832 66.4844 66.6201 67.4675 66.6538C68.4623 66.6741 69.5274 67.045 70.651 67.76C70.6802 67.8005 70.6978 67.7735 70.6978 67.6791C70.6978 67.5577 70.7212 67.4025 70.768 67.2204C70.8265 67.0248 70.9319 66.8629 71.0723 66.7348C71.4468 66.4312 71.8799 66.2761 72.3831 66.2761C72.8981 66.2761 73.2844 66.5661 73.5535 67.1395C73.6004 67.8949 73.536 68.8662 73.3663 70.0533C72.9449 72.63 72.9332 74.4781 73.3429 75.6113C73.7642 76.731 74.4899 77.2503 75.5198 77.1761C76.5498 77.0884 77.8899 75.9081 79.546 73.6417C81.1962 71.3619 81.8516 70.8223 81.5122 72.0229ZM63.2073 78.0665C63.7691 78.5386 64.4128 78.4712 65.1501 77.8776C65.8992 77.2706 66.6073 76.4139 67.2802 75.3145C67.9649 74.2218 68.5443 73.1223 69.0124 72.0229C69.4806 70.91 69.7381 70.0938 69.7849 69.5677C68.3921 68.7043 67.1983 68.5627 66.2035 69.136C65.2203 69.6959 64.4303 70.6132 63.8393 71.888C63.2424 73.1696 62.8913 74.4174 62.7859 75.6383C62.6747 76.8456 62.8152 77.655 63.2073 78.0665Z" fill="#551C1E"/>
<path d="M98.5055 72.7244C98.88 72.3467 99.1375 72.1713 99.2779 72.1848C99.4184 72.2051 99.4652 72.3197 99.4184 72.5356C99.3833 72.7514 99.2897 73.0077 99.1375 73.291C98.7162 73.979 98.1836 74.6873 97.5458 75.4225C96.9196 76.1644 96.4749 76.677 96.2115 76.9603C94.3506 78.8894 92.6828 79.9282 91.2022 80.09C89.7334 80.2384 88.4518 79.8742 87.3633 79.0108C86.2866 78.1475 85.4088 77.1627 84.7417 76.043C84.0687 74.9301 83.6239 74.06 83.4074 73.4259C83.3255 73.608 83.2728 74.0127 83.2436 74.64C83.2084 75.2741 83.1967 76.016 83.1967 76.8794C83.1792 77.7293 83.1558 78.5522 83.1265 79.3616C83.0914 80.171 83.0212 80.8387 82.9158 81.3581C82.7403 82.3699 82.2136 82.8016 81.3241 82.6532C80.6979 82.5857 80.341 82.208 80.2473 81.52C80.2005 81.1086 80.1771 80.6769 80.1771 80.2249C80.1771 79.2739 80.1771 78.3498 80.1771 77.446C80.2064 73.6687 80.2532 69.9117 80.3176 66.1682C80.3176 64.3538 80.3878 61.4872 80.5282 57.5615C80.6804 53.6224 80.9262 49.4607 81.2539 45.0697C81.5933 40.6854 82.0556 36.9082 82.635 33.738C82.8515 32.4834 83.2201 31.2963 83.7351 30.1766C84.2501 29.0434 85.0518 28.3284 86.1461 28.0182C86.6143 27.8968 87.0649 27.9912 87.5038 28.3149C87.9544 28.6252 88.3582 29.2525 88.721 30.2036C89.078 31.1951 89.2711 32.2271 89.3062 33.3063C89.3823 35.7008 89.1306 38.7226 88.5571 42.3717C87.9954 46.0072 87.2814 49.7912 86.427 53.7303C85.5843 57.656 84.7768 61.2309 84.016 64.4685C83.5947 66.3031 83.226 67.8815 82.9158 69.19C83.2436 68.5088 83.6883 67.7331 84.2501 66.8697C84.8119 66.0064 85.3503 65.3184 85.8652 64.7922C87.0942 63.6591 88.4986 63.2679 90.0787 63.6051C91.8225 64.057 92.3551 65.2104 91.6704 67.0586C90.933 68.6976 90.0318 69.9455 88.9551 70.8088C87.8783 71.6722 86.8367 72.34 85.8418 72.8054C86.8835 74.5186 88.0773 75.8744 89.4232 76.8794C90.3713 77.5134 91.4188 77.6079 92.5599 77.1762C93.7127 76.7445 94.8187 76.0902 95.8838 75.2066C96.9606 74.3095 97.8325 73.4799 98.5055 72.7244ZM85.0226 35.141C84.5368 38.6889 84.1096 43.1541 83.7351 48.5501C83.3723 53.9462 83.1324 58.3912 83.0095 61.8784C83.4601 60.4619 83.9809 58.0877 84.5778 54.7556C85.1864 51.4303 85.7482 47.9835 86.2632 44.4222C86.7898 40.8473 87.1585 37.9671 87.3633 35.7885C87.5974 33.4007 87.5623 31.8426 87.2697 31.1209C86.9888 30.4059 86.6201 30.4059 86.1695 31.1209C85.7131 31.8224 85.3327 33.1646 85.0226 35.141ZM83.6883 71.1596C83.7936 71.2338 84.0979 71.1731 84.6012 70.9707C85.1162 70.7751 85.678 70.5053 86.2866 70.1613C86.8952 69.8241 87.3926 69.4194 87.7847 68.9472C88.721 67.7466 89.1423 66.9237 89.0487 66.492C88.9551 66.0603 88.6157 65.9119 88.0422 66.0333C87.4628 66.1413 86.901 66.4785 86.3568 67.0316C85.7306 67.7196 85.1396 68.475 84.5778 69.2979C84.016 70.1074 83.7176 70.7279 83.6883 71.1596Z" fill="#551C1E"/>
<path d="M116.143 72.6705C116.406 72.4951 116.67 72.3602 116.939 72.2658C117.202 72.1579 117.372 72.1714 117.454 72.2928C117.53 72.4007 117.419 72.657 117.126 73.0482C116.19 74.2758 115.072 75.3955 113.779 76.4207C112.48 77.446 111.157 78.3094 109.799 79.0108C108.734 79.5707 107.611 80.0091 106.429 80.3329C105.241 80.6566 104.065 80.7308 102.894 80.5487C101.735 80.3733 100.682 79.7798 99.7341 78.768C98.2828 77.2234 97.6859 75.3348 97.9317 73.1022C98.1541 71.3417 98.751 69.8376 99.7341 68.5965C100.717 67.3554 101.958 66.519 103.456 66.0873C104.702 65.7635 105.961 65.7298 107.225 65.9794C107.786 66.0738 108.301 66.2897 108.77 66.6269C109.203 67.0249 109.448 67.4835 109.495 68.0029C109.542 68.5088 109.366 68.9944 108.98 69.4598C108.184 70.2692 107.26 70.7549 106.218 70.9168C105.059 71.1528 103.889 71.2945 102.707 71.3485C102.145 71.3485 101.747 71.4834 101.513 71.7532C101.279 72.023 101.144 72.4951 101.115 73.1561C100.928 74.9368 101.419 76.3938 102.59 77.5269C103.321 78.1947 104.211 78.4847 105.258 78.3903C106.318 78.2824 107.435 77.9586 108.606 77.419C109.788 76.8659 110.946 76.2184 112.07 75.4764C113.194 74.7412 114.206 74.0465 115.113 73.399C115.499 73.1157 115.845 72.8728 116.143 72.6705ZM103.222 68.8663C103.222 68.8865 103.198 68.8933 103.152 68.8933C103.105 68.9674 103.04 69.0416 102.964 69.1091C102.882 69.1833 102.806 69.2642 102.73 69.3519C102.666 69.4261 102.637 69.4801 102.637 69.5138C102.666 69.6082 102.894 69.6352 103.315 69.5947C103.737 69.5408 104.193 69.4531 104.697 69.3249C105.212 69.2035 105.639 69.0416 105.984 68.8393C106.323 68.6234 106.429 68.3739 106.288 68.0838C106.224 68.0164 106.148 67.9422 106.054 67.868C105.961 67.8006 105.855 67.7533 105.75 67.7331C105.247 67.7331 104.796 67.841 104.392 68.0569C103.983 68.2727 103.596 68.5425 103.222 68.8663Z" fill="#551C1E"/>
<path d="M150.937 69.7296C151.358 69.5003 151.779 69.3249 152.201 69.217C152.622 69.0956 152.95 69.0551 153.184 69.1091C153.429 69.163 153.511 69.2845 153.418 69.4598C153.324 69.6419 152.955 69.9117 152.318 70.2692C151.27 70.8088 150.147 71.5845 148.947 72.5895C147.759 73.6013 146.706 74.7345 145.787 75.989C144.862 77.2504 144.277 78.5791 144.031 79.9821C143.077 86.0797 141.679 92.049 139.841 97.897C139.028 100.662 137.992 103.327 136.728 105.883C136.195 107.016 135.546 108.028 134.785 108.932C134.329 109.485 133.784 109.836 133.147 109.984C132.081 110.126 131.28 110.011 130.736 109.633C130.185 109.256 129.788 108.426 129.542 107.151C129.319 105.6 129.343 104.055 129.612 102.511C130.156 99.0909 131.116 95.8263 132.491 92.7168C133.55 90.1941 134.727 87.7659 136.026 85.4321C137.319 83.1118 138.788 80.9197 140.426 78.8489C140.83 78.3296 141.111 77.7832 141.269 77.2032C141.439 76.6096 141.556 76.0025 141.62 75.3685C141.667 74.5793 141.726 73.7902 141.807 72.9942C142.164 69.7229 142.428 66.4245 142.603 63.0925C142.943 56.0979 142.82 49.0897 142.229 42.0749C141.901 38.3516 141.246 34.7093 140.263 31.1479C139.824 29.4751 139.162 27.9305 138.273 26.5073C138.021 26.1295 137.758 25.7923 137.477 25.482C136.775 24.6186 136.096 24.1532 135.441 24.079C134.797 24.0116 134.089 24.3151 133.31 24.9964C130.642 27.2627 129.015 30.2845 128.442 34.0617C128.237 35.4512 127.599 35.9369 126.522 35.5187C125.99 35.3028 125.715 34.8914 125.703 34.2776C125.668 33.7582 125.709 33.2253 125.82 32.6857C126.581 29.4144 128.044 26.6422 130.197 24.3758C131.145 23.3371 132.199 22.6626 133.357 22.3523C134.528 22.0285 135.751 22.0016 137.032 22.2714C137.764 22.4332 138.413 22.7435 138.975 23.1887C139.549 23.6406 140.087 24.1802 140.59 24.8075C141.79 26.4466 142.679 28.2745 143.259 30.2845C143.879 32.335 144.365 34.4057 144.71 36.49C145.049 38.5809 145.301 40.6921 145.459 42.8303C145.646 45.8926 145.793 48.766 145.904 51.464C145.933 52.4892 145.98 53.474 146.044 54.4048C145.951 60.327 145.652 65.75 145.155 70.6739C145.108 71.308 145.073 71.9353 145.061 72.5626C145.061 72.6907 145.067 72.8256 145.085 72.9673C145.114 73.0954 145.202 73.1696 145.342 73.1831C145.418 73.2236 145.494 73.2303 145.576 73.2101C145.652 73.1764 145.722 73.1426 145.787 73.1022C146.922 72.1848 148.011 71.4496 149.04 70.8898C149.632 70.566 150.264 70.1815 150.937 69.7296ZM139.818 86.3225C139.876 86.0324 139.917 85.7289 139.935 85.4052C139.935 85.277 139.947 85.1353 139.982 84.9735C138.39 87.2735 137.009 89.668 135.838 92.1502C134.668 94.6459 133.732 97.3034 133.03 100.109C132.778 101.135 132.573 102.146 132.421 103.158C132.28 104.183 132.245 105.209 132.327 106.234C132.327 106.396 132.351 106.537 132.397 106.666C132.456 106.787 132.55 106.868 132.678 106.908C132.924 106.962 133.123 106.868 133.264 106.639C134.165 105.141 134.914 103.549 135.511 101.863C136.459 99.3405 137.278 96.7908 137.969 94.2007C138.653 91.6106 139.268 88.98 139.818 86.3225Z" fill="#551C1E"/>
<path d="M167.192 72.7244C167.877 71.9689 168.176 71.78 168.082 72.1578C167.988 72.5355 167.614 73.2235 166.958 74.2083C166.303 75.1998 165.484 76.279 164.501 77.4459C163.517 78.5993 162.476 79.6043 161.387 80.4677C160.293 81.3176 159.263 81.7762 158.297 81.8437C157.092 81.8437 156.126 81.4322 155.395 80.6026C154.675 79.7797 154.16 78.687 153.85 77.338C153.54 75.989 153.405 74.532 153.452 72.9672C153.516 71.2067 153.569 69.4462 153.616 67.679C153.645 66.8022 153.669 65.9388 153.686 65.0889C153.745 63.6725 153.791 62.256 153.827 60.853C153.856 60.4079 153.791 60.0369 153.639 59.7469C153.487 59.4433 153.218 59.2747 152.843 59.2342C152.41 59.2207 151.86 59.2072 151.205 59.2072C150.631 59.2072 150.14 59.2072 149.73 59.2072C149.168 59.1398 148.794 58.9644 148.607 58.6946C148.408 58.4113 148.554 58.1213 149.051 57.8313C149.397 57.6694 149.818 57.5817 150.315 57.5615C150.801 57.548 151.275 57.5547 151.743 57.5884C152.042 57.6289 152.299 57.6424 152.516 57.6424C153.253 57.6424 153.692 57.5075 153.85 57.2377C154.02 56.9679 154.119 56.4485 154.154 55.6728C154.201 54.8297 154.236 53.9933 154.271 53.1637C154.301 52.7185 154.33 52.2666 154.365 51.8147C154.365 51.1671 154.511 50.5736 154.81 50.034C155.137 49.5483 155.541 49.3595 156.027 49.4674C156.46 49.5955 156.706 49.9125 156.753 50.4117C156.799 51.2413 156.823 52.0777 156.823 52.9208C156.834 53.393 156.834 53.8584 156.823 54.3238C156.823 54.8297 156.829 55.3491 156.846 55.8887C156.829 56.6441 156.905 57.123 157.08 57.3186C157.25 57.5007 157.677 57.5884 158.368 57.5884C159.474 57.5884 160.574 57.5884 161.668 57.5884C162.166 57.5884 163.64 57.5547 166.092 57.4805C168.556 57.3928 169.884 57.6154 170.072 58.155C170.259 58.6946 168.702 59.0116 165.413 59.0993C163.412 59.2275 161.867 59.2882 160.779 59.2882C160.041 59.2545 159.386 59.2342 158.812 59.2342C157.829 59.2342 157.221 59.4366 156.987 59.8278C156.764 60.2258 156.665 61.0149 156.682 62.2021C156.665 63.2138 156.624 64.4347 156.565 65.8714C156.39 68.8392 156.308 71.861 156.308 74.9367C156.366 77.0412 156.694 78.4104 157.291 79.0377C157.9 79.6718 158.678 79.7864 159.632 79.3885C160.58 78.9973 161.61 78.2958 162.722 77.284C163.828 76.279 164.928 75.1998 166.022 74.0464C166.256 73.6889 166.543 73.3584 166.888 73.0481C166.993 72.9267 167.099 72.8188 167.192 72.7244Z" fill="#551C1E"/>
<path d="M233.348 70.2151C233.611 70.1814 233.728 70.4242 233.699 70.9436C233.682 71.4495 233.512 71.7125 233.184 71.726C232.868 71.8002 232.587 71.9823 232.341 72.2656C232.09 72.5354 231.967 72.8457 231.967 73.183C232.043 76.2452 231.698 79.1861 230.937 82.0055C230.188 84.8115 229.187 87.5162 227.941 90.1266C225.46 95.5563 222.446 100.386 218.905 104.615C215.359 108.837 211.216 112.399 206.476 115.299C203.854 116.877 201.15 118.058 198.377 118.834C195.615 119.623 192.741 119.92 189.763 119.724C187.281 119.562 184.946 118.793 182.764 117.431C180.171 115.663 178.462 113.357 177.637 110.497C176.806 107.65 176.964 104.628 178.105 101.431C179.305 98.3151 181.195 95.4214 183.77 92.7436C186.357 90.0591 189.365 87.5904 192.782 85.3241C196.2 83.0712 199.764 81.0882 203.48 79.3614C207.19 77.6347 210.771 76.1643 214.224 74.9367C217.671 73.7158 220.731 72.7917 223.4 72.1577C224.131 71.9621 224.851 71.78 225.553 71.6181C226.331 71.4765 227.086 71.3078 227.824 71.1055C228.444 70.9841 228.666 70.5929 228.479 69.9453C227.853 66.9235 226.595 64.3267 224.71 62.148C223.353 60.6034 221.866 59.3016 220.263 58.2359C218.671 57.1769 216.992 56.2866 215.23 55.5649C209.905 53.3929 204.404 52.1653 198.728 51.8955C198.336 51.8416 197.938 51.8146 197.534 51.8146C197.077 51.8686 196.838 52.1586 196.808 52.678C196.744 53.312 196.715 53.9393 196.715 54.5666C196.697 59.4972 196.691 64.4346 196.691 69.3787C196.656 71.5574 196.644 73.7428 196.644 75.9349C196.644 76.0968 196.644 76.2317 196.644 76.3397C196.644 76.6634 196.644 76.9804 196.644 77.284C196.504 78.7072 195.86 79.1996 194.725 78.7679C194.286 78.606 194.052 78.2755 194.023 77.7696C193.976 77.0546 193.964 76.3262 193.999 75.5842C193.964 71.1257 193.953 66.6807 193.953 62.256C193.953 60.0098 193.953 57.7907 193.953 55.5918C193.953 55.4165 193.953 55.2276 193.953 55.0252C193.953 54.5059 193.935 53.9595 193.906 53.3795C193.906 52.7859 193.824 52.4014 193.672 52.2193C193.514 52.0237 193.203 51.9158 192.735 51.8955C192.501 51.8955 192.291 51.8955 192.103 51.8955C191.588 51.8416 191.079 51.7876 190.582 51.7337C190.143 51.6797 189.844 51.4234 189.692 50.9512C189.552 50.3442 189.681 49.845 190.09 49.4673C190.634 48.9682 191.214 48.4825 191.822 48.0104C192.057 47.835 192.273 47.6731 192.478 47.5247C192.946 47.1875 193.28 46.9042 193.484 46.6884C193.683 46.4725 193.8 46.2297 193.836 45.9599C193.882 45.6766 193.906 45.2247 193.906 44.6109C193.871 44.2736 193.859 43.8689 193.859 43.3968C193.888 39.8354 193.906 36.2672 193.906 32.6856C193.906 30.7093 193.906 28.7128 193.906 26.696C193.906 26.6825 193.906 26.6353 193.906 26.5611C193.906 25.8798 193.935 25.2053 193.999 24.5376C194.046 23.6742 194.473 23.2627 195.287 23.2965C196.083 23.2627 196.533 23.6607 196.644 24.4836C196.691 25.3132 196.715 26.1496 196.715 26.9928C196.715 29.1377 196.715 31.2691 196.715 33.3871C196.715 35.9974 196.738 38.5875 196.785 41.1574C196.738 41.3598 196.715 41.5351 196.715 41.697C196.668 42.4187 196.767 43.2484 197.019 44.1792C198.81 42.9921 200.981 41.4812 203.526 39.6465C206.084 37.8118 208.682 35.8423 211.321 33.7378C213.972 31.6199 216.319 29.5019 218.367 27.3975C220.409 25.293 221.831 23.3504 222.627 21.5697C223.47 19.5192 223.084 17.8397 221.48 16.5244C219.496 14.9798 216.927 14.1367 213.779 13.9883C210.625 13.8466 207.301 14.2311 203.807 15.1484C200.308 16.0658 197.054 17.3473 194.046 18.9796C191.05 20.5984 188.686 22.4331 186.954 24.4836C186.404 25.1514 185.912 25.9405 185.479 26.8579C185.04 27.7752 184.695 28.6925 184.449 29.6098C184.262 30.1899 183.893 30.5204 183.349 30.6081C182.799 30.7026 182.342 30.5272 181.968 30.0955C181.78 29.7717 181.716 29.4345 181.78 29.0702C182.026 27.991 182.459 27.013 183.068 26.1294C184.999 23.2695 187.749 20.7738 191.307 18.6289C194.865 16.4907 198.716 14.8719 202.871 13.7724C207.038 12.6797 210.982 12.2278 214.715 12.4234C218.461 12.6055 221.48 13.5768 223.774 15.3373C226.115 17.1922 226.618 19.5665 225.296 22.4601C224.605 23.9035 223.599 25.3672 222.276 26.8579C220.965 28.3553 219.561 29.7717 218.063 31.1207C216.576 32.4563 215.26 33.6029 214.107 34.5742C212.012 36.3414 209.858 38.0277 207.646 39.6465C205.446 41.2653 203.222 42.8504 200.975 44.395C200.928 44.4153 200.87 44.449 200.811 44.5029C199.699 45.2449 198.611 46.0071 197.534 46.7963C196.785 47.4438 196.557 48.3207 196.855 49.4134C196.867 49.5213 196.925 49.6292 197.019 49.7371C197.124 49.845 197.235 49.899 197.347 49.899C197.78 49.9934 198.219 50.0339 198.658 50.0339C198.687 50.0339 198.728 50.0339 198.775 50.0339C204.673 50.2363 210.414 51.4031 216.003 53.5413C219.104 54.6745 221.995 56.3203 224.664 58.4787C226.285 59.794 227.66 61.3049 228.783 63.0114C229.907 64.7247 230.738 66.674 231.288 68.8661C231.458 69.5878 231.663 70.0263 231.897 70.1882C232.131 70.3365 232.611 70.3433 233.348 70.2151ZM228.924 75.5842C229.029 74.3094 228.947 73.527 228.666 73.2369C228.397 72.9536 227.707 72.9671 226.583 73.2909C223.915 73.9047 220.901 74.7883 217.548 75.9349C214.206 77.0681 210.759 78.4576 207.201 80.0899C203.655 81.729 200.249 83.6041 196.972 85.7288C193.707 87.8467 190.828 90.2075 188.335 92.7976C185.836 95.3877 183.957 98.2274 182.693 101.323C181.786 103.698 181.371 105.924 181.453 108.014C181.546 110.099 182.015 111.906 182.857 113.438C183.7 114.962 184.812 116.034 186.205 116.648C187.984 117.437 189.821 117.869 191.729 117.943C191.869 117.943 191.992 117.93 192.103 117.916C192.384 117.862 192.653 117.835 192.923 117.835C196.527 117.437 199.927 116.311 203.128 114.463C208.945 111.131 213.861 106.841 217.875 101.593C221.884 96.3388 225.062 90.2412 227.402 83.3006C228.228 80.8049 228.737 78.2283 228.924 75.5842Z" fill="#551C1E"/>
<path d="M247.725 72.7514C247.959 72.1983 248.112 71.942 248.193 71.9959C248.287 72.0364 248.311 72.259 248.264 72.6704C248.229 73.0886 248.153 73.5473 248.03 74.0464C247.872 74.8423 247.591 75.7597 247.187 76.7984C246.795 77.8237 246.356 78.7612 245.876 79.6044C245.156 80.778 244.267 81.6549 243.208 82.2484C242.143 82.842 241.183 82.9971 240.328 82.7071C239.468 82.4036 238.971 81.4592 238.83 79.8742C238.813 78.5656 238.912 77.1222 239.135 75.5573C239.211 74.8963 239.287 74.2488 239.369 73.6147C239.369 73.3989 239.31 73.2303 239.205 73.1021C239.111 72.9807 238.982 72.9335 238.83 72.9672C238.719 72.9672 238.596 72.9672 238.456 72.9672C237.783 73.0954 237.086 73.0751 236.373 72.9133C235.53 72.63 235.05 72.1511 234.921 71.4833C234.781 70.802 234.792 69.905 234.945 68.7853C235.038 68.0163 235.296 67.4295 235.717 67.0316C236.138 66.6403 236.63 66.4785 237.192 66.5459C237.988 66.6403 238.368 66.9911 238.339 67.5981C238.321 68.2119 238.175 68.8662 237.894 69.5677C237.642 70.1613 237.508 70.6604 237.496 71.0516C237.496 71.4293 237.789 71.5642 238.386 71.4563C238.526 71.4226 238.672 71.3686 238.83 71.2944C239.047 71.2068 239.298 71.1258 239.579 71.0516C239.872 70.9639 240.247 70.9437 240.703 70.9977C241.247 71.0179 241.604 71.3079 241.78 71.861C241.967 72.4006 242.043 73.0886 242.014 73.9115C241.996 74.7412 241.932 75.5843 241.827 76.4477C241.686 77.5269 241.616 78.4577 241.616 79.2266C241.616 79.9821 241.809 80.4272 242.201 80.5487C242.698 80.7105 243.453 80.1844 244.472 78.9568C245.484 77.736 246.567 75.6652 247.725 72.7514Z" fill="#551C1E"/>
<path d="M265.167 72.6705C265.43 72.4951 265.694 72.3602 265.963 72.2658C266.226 72.1579 266.396 72.1714 266.478 72.2928C266.554 72.4007 266.443 72.657 266.15 73.0482C265.214 74.2758 264.096 75.3955 262.803 76.4207C261.504 77.446 260.181 78.3094 258.823 79.0108C257.758 79.5707 256.635 80.0091 255.453 80.3329C254.265 80.6566 253.089 80.7308 251.918 80.5487C250.759 80.3733 249.706 79.7798 248.758 78.768C247.307 77.2234 246.71 75.3348 246.956 73.1022C247.178 71.3417 247.775 69.8376 248.758 68.5965C249.741 67.3554 250.982 66.519 252.48 66.0873C253.726 65.7635 254.985 65.7298 256.249 65.9794C256.81 66.0738 257.325 66.2897 257.794 66.6269C258.227 67.0249 258.472 67.4835 258.519 68.0029C258.566 68.5088 258.39 68.9944 258.004 69.4598C257.208 70.2692 256.284 70.7549 255.242 70.9168C254.083 71.1528 252.913 71.2945 251.731 71.3485C251.169 71.3485 250.771 71.4834 250.537 71.7532C250.303 72.023 250.168 72.4951 250.139 73.1561C249.952 74.9368 250.443 76.3938 251.614 77.5269C252.345 78.1947 253.235 78.4847 254.282 78.3903C255.342 78.2824 256.459 77.9586 257.63 77.419C258.812 76.8659 259.97 76.2184 261.094 75.4764C262.218 74.7412 263.23 74.0465 264.137 73.399C264.523 73.1157 264.869 72.8728 265.167 72.6705ZM252.246 68.8663C252.246 68.8865 252.222 68.8933 252.176 68.8933C252.129 68.9674 252.064 69.0416 251.988 69.1091C251.906 69.1833 251.83 69.2642 251.754 69.3519C251.69 69.4261 251.661 69.4801 251.661 69.5138C251.69 69.6082 251.918 69.6352 252.34 69.5947C252.761 69.5408 253.217 69.4531 253.721 69.3249C254.236 69.2035 254.663 69.0416 255.008 68.8393C255.347 68.6234 255.453 68.3739 255.312 68.0838C255.248 68.0164 255.172 67.9422 255.078 67.868C254.985 67.8006 254.879 67.7533 254.774 67.7331C254.271 67.7331 253.82 67.841 253.416 68.0569C253.007 68.2727 252.62 68.5425 252.246 68.8663Z" fill="#551C1E"/>
<path d="M286.278 72.0229C285.933 73.21 285.254 74.586 284.242 76.1509C283.241 77.7022 281.983 78.7005 280.473 79.1457C278.958 79.5774 277.647 79.5167 276.541 78.9568C275.429 78.3835 274.82 76.8726 274.715 74.4241C273.463 77.2166 272.269 79.004 271.133 79.7932C270.01 80.5891 268.828 80.8859 267.599 80.6836C266.206 80.434 265.27 79.8134 264.79 78.8219C264.293 77.8371 264.129 76.704 264.298 75.4224C264.456 74.1274 264.79 72.8863 265.305 71.6991C265.709 70.802 266.271 69.9724 266.99 69.217C267.722 68.4615 268.488 67.8679 269.284 67.4363C270.267 66.8832 271.251 66.6201 272.234 66.6538C273.229 66.6741 274.294 67.045 275.417 67.76C275.446 67.8005 275.464 67.7735 275.464 67.6791C275.464 67.5577 275.487 67.4025 275.534 67.2204C275.593 67.0248 275.698 66.8629 275.838 66.7348C276.213 66.4312 276.646 66.2761 277.149 66.2761C277.664 66.2761 278.051 66.5661 278.32 67.1395C278.367 67.8949 278.302 68.8662 278.132 70.0533C277.711 72.63 277.699 74.4781 278.109 75.6113C278.53 76.731 279.256 77.2503 280.286 77.1761C281.316 77.0884 282.656 75.9081 284.312 73.6417C285.962 71.3619 286.618 70.8223 286.278 72.0229ZM267.973 78.0665C268.535 78.5386 269.179 78.4712 269.916 77.8776C270.665 77.2706 271.373 76.4139 272.046 75.3145C272.731 74.2218 273.31 73.1223 273.779 72.0229C274.247 70.91 274.504 70.0938 274.551 69.5677C273.158 68.7043 271.964 68.5627 270.97 69.136C269.987 69.6959 269.196 70.6132 268.605 71.888C268.009 73.1696 267.657 74.4174 267.552 75.6383C267.441 76.8456 267.581 77.655 267.973 78.0665Z" fill="#551C1E"/>
<path d="M298.59 72.7244C299.275 71.9689 299.573 71.78 299.48 72.1578C299.386 72.5355 299.012 73.2235 298.356 74.2083C297.701 75.1998 296.881 76.279 295.898 77.4459C294.915 78.5993 293.874 79.6043 292.785 80.4677C291.691 81.3176 290.661 81.7762 289.695 81.8437C288.49 81.8437 287.524 81.4322 286.793 80.6026C286.073 79.7797 285.558 78.687 285.248 77.338C284.938 75.989 284.803 74.532 284.85 72.9672C284.914 71.2067 284.967 69.4462 285.014 67.679C285.043 66.8022 285.066 65.9388 285.084 65.0889C285.142 63.6725 285.189 62.256 285.224 60.853C285.254 60.4079 285.189 60.0369 285.037 59.7469C284.885 59.4433 284.616 59.2747 284.241 59.2342C283.808 59.2207 283.258 59.2072 282.603 59.2072C282.029 59.2072 281.538 59.2072 281.128 59.2072C280.566 59.1398 280.192 58.9644 280.004 58.6946C279.805 58.4113 279.952 58.1213 280.449 57.8313C280.794 57.6694 281.216 57.5817 281.713 57.5615C282.199 57.548 282.673 57.5547 283.141 57.5884C283.439 57.6289 283.697 57.6424 283.913 57.6424C284.651 57.6424 285.09 57.5075 285.248 57.2377C285.417 56.9679 285.517 56.4485 285.552 55.6728C285.599 54.8297 285.634 53.9933 285.669 53.1637C285.698 52.7185 285.728 52.2666 285.763 51.8147C285.763 51.1671 285.909 50.5736 286.207 50.034C286.535 49.5483 286.939 49.3595 287.425 49.4674C287.858 49.5955 288.103 49.9125 288.15 50.4117C288.197 51.2413 288.221 52.0777 288.221 52.9208C288.232 53.393 288.232 53.8584 288.221 54.3238C288.221 54.8297 288.226 55.3491 288.244 55.8887C288.226 56.6441 288.302 57.123 288.478 57.3186C288.648 57.5007 289.075 57.5884 289.765 57.5884C290.871 57.5884 291.972 57.5884 293.066 57.5884C293.563 57.5884 295.038 57.5547 297.49 57.4805C299.954 57.3928 301.282 57.6154 301.469 58.155C301.657 58.6946 300.1 59.0116 296.811 59.0993C294.81 59.2275 293.265 59.2882 292.176 59.2882C291.439 59.2545 290.784 59.2342 290.21 59.2342C289.227 59.2342 288.618 59.4366 288.384 59.8278C288.162 60.2258 288.063 61.0149 288.08 62.2021C288.063 63.2138 288.022 64.4347 287.963 65.8714C287.787 68.8392 287.706 71.861 287.706 74.9367C287.764 77.0412 288.092 78.4104 288.689 79.0377C289.297 79.6718 290.076 79.7864 291.029 79.3885C291.977 78.9973 293.007 78.2958 294.119 77.284C295.225 76.279 296.326 75.1998 297.42 74.0464C297.654 73.6889 297.941 73.3584 298.286 73.0481C298.391 72.9267 298.497 72.8188 298.59 72.7244Z" fill="#551C1E"/>
<path d="M316.56 72.6165C317.62 71.2675 318.176 70.7549 318.222 71.0786C318.281 71.3889 318.059 72.1174 317.544 73.264C317.04 74.4174 316.262 75.3955 315.203 76.2049C314.419 76.7647 313.74 77.1425 313.166 77.3381C312.605 77.5404 312.095 77.6483 311.645 77.6618C310.738 77.736 310.041 77.4392 309.561 76.7715C309.093 76.1105 308.766 75.2606 308.578 74.2353C308.391 73.1966 308.251 72.1241 308.157 71.0247C308.075 70.3232 307.999 69.6959 307.923 69.1361C307.812 68.2592 307.595 67.7736 307.268 67.6791C306.94 67.5914 306.431 68.158 305.746 69.3789C305.044 70.6942 304.423 72.1444 303.897 73.7227C303.364 75.3078 302.89 76.8659 302.469 78.3903C302.451 78.4443 302.428 78.5184 302.399 78.6061C302.317 78.822 302.247 79.0513 302.188 79.2806C302.03 79.9147 301.843 80.5217 301.626 81.1153C301.439 81.6212 301.117 81.9517 300.666 82.1136C300.21 82.2754 299.736 82.2417 299.239 82.0056C298.911 81.8438 298.689 81.574 298.583 81.1962C298.425 80.6431 298.373 80.0631 298.419 79.4695C298.419 79.4021 298.419 79.3548 298.419 79.3346C298.525 76.8389 298.548 72.6975 298.49 66.9237C298.425 62.3033 298.396 57.3389 298.396 52.0306C298.396 46.7087 298.513 41.6904 298.747 36.9756C298.981 32.2675 299.379 28.4903 299.941 25.6439C300.187 24.6186 300.596 23.7013 301.158 22.8919C301.732 22.069 302.364 21.6171 303.054 21.5429C303.756 21.4552 304.412 21.9948 305.02 23.1617C305.424 24.1735 305.682 25.2392 305.793 26.3724C306.056 29.7044 305.805 34.8374 305.044 41.7781C304.295 48.7053 303.499 54.7691 302.656 59.9628C301.825 65.1632 301.416 69.507 301.416 72.9942C301.696 72.4749 301.966 71.9083 302.235 71.2945C302.621 70.4176 303.054 69.534 303.522 68.6504C304.002 67.7736 304.564 67.0249 305.208 66.4111C305.863 65.804 306.659 65.4128 307.595 65.2509C308.216 65.143 308.859 65.1969 309.515 65.4128C310.17 65.6286 310.603 66.1547 310.826 66.9776C311.106 68.4211 311.2 69.959 311.106 71.5913C311.106 73.318 311.364 74.4174 311.879 74.8829C312.406 75.3348 313.055 75.409 313.822 75.0987C314.6 74.7952 315.513 73.9655 316.56 72.6165ZM302.68 28.3149C302.539 30.0956 302.381 33.0837 302.211 37.2724C302.036 41.4476 301.89 45.6363 301.767 49.8452C301.638 54.0406 301.579 57.5278 301.579 60.3135C301.872 57.7976 302.235 54.5263 302.656 50.4927C303.078 46.4457 303.452 42.2907 303.78 38.0278C304.107 33.7515 304.271 30.5408 304.271 28.3959C304.254 27.2627 304.189 26.4263 304.084 25.8867C303.973 25.3336 303.786 25.1313 303.522 25.2932C303.253 25.455 303.054 25.8597 302.914 26.5073C302.785 27.1413 302.709 27.7416 302.68 28.3149Z" fill="#551C1E"/>
<path d="M330.868 72.7244C331.553 71.9689 331.851 71.78 331.757 72.1578C331.664 72.5355 331.289 73.2235 330.634 74.2083C329.978 75.1998 329.159 76.279 328.176 77.4459C327.193 78.5993 326.151 79.6043 325.063 80.4677C323.969 81.3176 322.939 81.7762 321.973 81.8437C320.767 81.8437 319.802 81.4322 319.07 80.6026C318.351 79.7797 317.836 78.687 317.526 77.338C317.215 75.989 317.081 74.532 317.128 72.9672C317.192 71.2067 317.245 69.4462 317.291 67.679C317.321 66.8022 317.344 65.9388 317.362 65.0889C317.42 63.6725 317.467 62.256 317.502 60.853C317.531 60.4079 317.467 60.0369 317.315 59.7469C317.163 59.4433 316.893 59.2747 316.519 59.2342C316.086 59.2207 315.536 59.2072 314.88 59.2072C314.307 59.2072 313.815 59.2072 313.406 59.2072C312.844 59.1398 312.469 58.9644 312.282 58.6946C312.083 58.4113 312.229 58.1213 312.727 57.8313C313.072 57.6694 313.494 57.5817 313.991 57.5615C314.477 57.548 314.951 57.5547 315.419 57.5884C315.717 57.6289 315.975 57.6424 316.191 57.6424C316.929 57.6424 317.368 57.5075 317.526 57.2377C317.695 56.9679 317.795 56.4485 317.83 55.6728C317.877 54.8297 317.912 53.9933 317.947 53.1637C317.976 52.7185 318.005 52.2666 318.04 51.8147C318.04 51.1671 318.187 50.5736 318.485 50.034C318.813 49.5483 319.217 49.3595 319.702 49.4674C320.135 49.5955 320.381 49.9125 320.428 50.4117C320.475 51.2413 320.498 52.0777 320.498 52.9208C320.51 53.393 320.51 53.8584 320.498 54.3238C320.498 54.8297 320.504 55.3491 320.522 55.8887C320.504 56.6441 320.58 57.123 320.756 57.3186C320.925 57.5007 321.353 57.5884 322.043 57.5884C323.149 57.5884 324.249 57.5884 325.344 57.5884C325.841 57.5884 327.316 57.5547 329.768 57.4805C332.231 57.3928 333.56 57.6154 333.747 58.155C333.934 58.6946 332.378 59.0116 329.089 59.0993C327.088 59.2275 325.543 59.2882 324.454 59.2882C323.717 59.2545 323.061 59.2342 322.488 59.2342C321.505 59.2342 320.896 59.4366 320.662 59.8278C320.44 60.2258 320.34 61.0149 320.358 62.2021C320.34 63.2138 320.299 64.4347 320.241 65.8714C320.065 68.8392 319.983 71.861 319.983 74.9367C320.042 77.0412 320.37 78.4104 320.966 79.0377C321.575 79.6718 322.353 79.7864 323.307 79.3885C324.255 78.9973 325.285 78.2958 326.397 77.284C327.503 76.279 328.603 75.1998 329.698 74.0464C329.932 73.6889 330.218 73.3584 330.564 73.0481C330.669 72.9267 330.774 72.8188 330.868 72.7244Z" fill="#551C1E"/>
<path d="M351.671 72.0229C351.325 73.21 350.647 74.586 349.634 76.1509C348.633 77.7022 347.375 78.7005 345.865 79.1457C344.35 79.5774 343.039 79.5167 341.933 78.9568C340.821 78.3835 340.212 76.8726 340.107 74.4241C338.855 77.2166 337.661 79.004 336.526 79.7932C335.402 80.5891 334.22 80.8859 332.991 80.6836C331.598 80.434 330.662 79.8134 330.182 78.8219C329.685 77.8371 329.521 76.704 329.691 75.4224C329.849 74.1274 330.182 72.8863 330.697 71.6991C331.101 70.802 331.663 69.9724 332.383 69.217C333.114 68.4615 333.881 67.8679 334.676 67.4363C335.66 66.8832 336.643 66.6201 337.626 66.6538C338.621 66.6741 339.686 67.045 340.809 67.76C340.839 67.8005 340.856 67.7735 340.856 67.6791C340.856 67.5577 340.88 67.4025 340.926 67.2204C340.985 67.0248 341.09 66.8629 341.231 66.7348C341.605 66.4312 342.038 66.2761 342.542 66.2761C343.057 66.2761 343.443 66.5661 343.712 67.1395C343.759 67.8949 343.694 68.8662 343.525 70.0533C343.103 72.63 343.092 74.4781 343.501 75.6113C343.923 76.731 344.648 77.2503 345.678 77.1761C346.708 77.0884 348.048 75.9081 349.704 73.6417C351.355 71.3619 352.01 70.8223 351.671 72.0229ZM333.366 78.0665C333.927 78.5386 334.571 78.4712 335.309 77.8776C336.058 77.2706 336.766 76.4139 337.439 75.3145C338.123 74.2218 338.703 73.1223 339.171 72.0229C339.639 70.91 339.896 70.0938 339.943 69.5677C338.55 68.7043 337.357 68.5627 336.362 69.136C335.379 69.6959 334.589 70.6132 333.998 71.888C333.401 73.1696 333.05 74.4174 332.944 75.6383C332.833 76.8456 332.974 77.655 333.366 78.0665Z" fill="#551C1E"/>
<path d="M368.664 72.7244C369.038 72.3467 369.296 72.1713 369.436 72.1848C369.577 72.2051 369.624 72.3197 369.577 72.5356C369.542 72.7514 369.448 73.0077 369.296 73.291C368.875 73.979 368.342 74.6873 367.704 75.4225C367.078 76.1644 366.633 76.677 366.37 76.9603C364.509 78.8894 362.841 79.9282 361.361 80.09C359.892 80.2384 358.61 79.8742 357.522 79.0108C356.445 78.1475 355.567 77.1627 354.9 76.043C354.227 74.9301 353.782 74.06 353.566 73.4259C353.484 73.608 353.431 74.0127 353.402 74.64C353.367 75.2741 353.355 76.016 353.355 76.8794C353.338 77.7293 353.314 78.5522 353.285 79.3616C353.25 80.171 353.18 80.8387 353.074 81.3581C352.899 82.3699 352.372 82.8016 351.483 82.6532C350.856 82.5857 350.499 82.208 350.406 81.52C350.359 81.1086 350.336 80.6769 350.336 80.2249C350.336 79.2739 350.336 78.3498 350.336 77.446C350.365 73.6687 350.412 69.9117 350.476 66.1682C350.476 64.3538 350.546 61.4872 350.687 57.5615C350.839 53.6224 351.085 49.4607 351.412 45.0697C351.752 40.6854 352.214 36.9082 352.793 33.738C353.01 32.4834 353.379 31.2963 353.894 30.1766C354.409 29.0434 355.21 28.3284 356.305 28.0182C356.773 27.8968 357.223 27.9912 357.662 28.3149C358.113 28.6252 358.517 29.2525 358.879 30.2036C359.236 31.1951 359.429 32.2271 359.465 33.3063C359.541 35.7008 359.289 38.7226 358.716 42.3717C358.154 46.0072 357.44 49.7912 356.585 53.7303C355.743 57.656 354.935 61.2309 354.174 64.4685C353.753 66.3031 353.384 67.8815 353.074 69.19C353.402 68.5088 353.847 67.7331 354.409 66.8697C354.97 66.0064 355.509 65.3184 356.024 64.7922C357.253 63.6591 358.657 63.2679 360.237 63.6051C361.981 64.057 362.513 65.2104 361.829 67.0586C361.091 68.6976 360.19 69.9455 359.113 70.8088C358.037 71.6722 356.995 72.34 356 72.8054C357.042 74.5186 358.236 75.8744 359.582 76.8794C360.53 77.5134 361.577 77.6079 362.718 77.1762C363.871 76.7445 364.977 76.0902 366.042 75.2066C367.119 74.3095 367.991 73.4799 368.664 72.7244ZM355.181 35.141C354.695 38.6889 354.268 43.1541 353.894 48.5501C353.531 53.9462 353.291 58.3912 353.168 61.8784C353.618 60.4619 354.139 58.0877 354.736 54.7556C355.345 51.4303 355.907 47.9835 356.422 44.4222C356.948 40.8473 357.317 37.9671 357.522 35.7885C357.756 33.4007 357.721 31.8426 357.428 31.1209C357.147 30.4059 356.779 30.4059 356.328 31.1209C355.871 31.8224 355.491 33.1646 355.181 35.141ZM353.847 71.1596C353.952 71.2338 354.256 71.1731 354.76 70.9707C355.275 70.7751 355.836 70.5053 356.445 70.1613C357.054 69.8241 357.551 69.4194 357.943 68.9472C358.879 67.7466 359.301 66.9237 359.207 66.492C359.113 66.0603 358.774 65.9119 358.201 66.0333C357.621 66.1413 357.059 66.4785 356.515 67.0316C355.889 67.7196 355.298 68.475 354.736 69.2979C354.174 70.1074 353.876 70.7279 353.847 71.1596Z" fill="#551C1E"/>
<path d="M378.015 74.3432C377.64 75.2471 376.985 76.2521 376.049 77.365C375.124 78.4847 374.082 79.1929 372.912 79.4965C371.742 79.8067 370.624 79.3346 369.565 78.0935C369.155 77.5539 368.851 76.9333 368.652 76.2319C368.465 75.5169 368.394 74.8154 368.441 74.1274C368.441 73.952 368.441 73.7159 368.441 73.4259C368.441 72.7109 368.465 71.8745 368.511 70.9167C368.57 69.9455 368.699 69.0753 368.886 68.2997C369.085 67.5307 369.389 67.0721 369.799 66.9237C370.981 66.5864 371.625 67.0518 371.718 68.3266C371.718 68.7448 371.701 69.1563 371.671 69.5677C371.654 69.7836 371.648 69.9859 371.648 70.1613C371.613 70.7751 371.59 71.3754 371.578 71.969C371.578 72.4411 371.554 72.9133 371.508 73.3989C371.49 75.4697 371.894 76.704 372.725 77.0952C373.55 77.4729 374.492 77.0547 375.557 75.8271C376.634 74.6063 377.336 73.5878 377.664 72.7784C377.992 71.9555 378.226 71.7801 378.366 72.2658C378.518 72.7379 378.401 73.4259 378.015 74.3432ZM371.484 62.4989C371.309 62.6608 371.11 62.762 370.876 62.7957C370.653 62.8362 370.46 62.8159 370.29 62.7417C370.15 62.6203 370.056 62.4449 370.009 62.2291C369.974 62.0133 369.963 61.7704 369.963 61.5006C369.963 61.4332 369.974 61.3657 370.009 61.3118C370.021 61.0622 370.08 60.8126 370.173 60.5563C370.419 59.8751 370.934 59.5581 371.718 59.612C371.982 59.6525 372.192 59.7739 372.35 59.9897C372.502 60.2056 372.543 60.4619 372.467 60.7452C372.28 61.4467 371.952 62.0335 371.484 62.4989Z" fill="#551C1E"/>
<path d="M392.879 74.775C393.827 73.0347 394.389 71.9285 394.565 71.4564C394.752 70.991 394.898 71.018 395.009 71.5373C395.115 72.0432 394.81 73.2034 394.096 75.0178C393.377 76.8187 392.481 78.2149 391.404 79.1997C390.339 80.171 389.35 80.5352 388.432 80.2789C387.507 80.0091 386.846 79.2672 386.442 78.0396C386.05 76.8187 385.933 75.2808 386.091 73.4259C386.091 73.4125 386.103 73.3315 386.138 73.1831C386.149 72.8796 386.19 72.4209 386.255 71.8071C386.331 71.2001 386.383 70.5593 386.419 69.8915C386.448 69.2305 386.424 68.6909 386.348 68.2727C386.284 67.841 386.12 67.6926 385.857 67.8141C385.201 68.2322 384.552 69.0417 383.914 70.2423C383.288 71.4496 382.72 72.7177 382.205 74.0465C381.702 75.3618 381.351 76.4342 381.152 77.2571C381.058 77.5135 380.97 77.7833 380.894 78.0665C380.783 78.4308 380.66 78.795 380.52 79.1727C380.157 80.2519 379.537 80.6701 378.647 80.4138C378.144 80.2924 377.857 79.9417 377.781 79.3616C377.746 78.9299 377.734 78.5117 377.734 78.0935C377.734 77.844 377.723 77.6079 377.711 77.392C377.664 74.2286 377.594 71.0382 377.5 67.8141C377.529 67.4363 377.67 67.18 377.922 67.0316C378.185 66.89 378.495 66.8158 378.858 66.8158C379.121 66.8158 379.373 66.9102 379.607 67.0856C379.853 67.2475 380.011 67.6117 380.075 68.1648C380.104 68.3469 380.122 68.529 380.122 68.7044C380.151 68.8123 380.169 68.9135 380.169 69.0012C380.216 69.4329 380.239 69.8106 380.239 70.1344C380.239 70.6065 380.262 70.9303 380.309 71.1056C380.368 71.2675 380.485 71.2608 380.66 71.0787C380.848 70.8831 381.14 70.4311 381.55 69.7296C382.252 68.4886 383.124 67.4296 384.171 66.546C385.119 65.7568 386.167 65.433 387.308 65.5747C388.291 65.6826 388.953 66.2694 389.298 67.3284C389.421 67.8882 389.485 68.4481 389.485 69.0012C389.485 69.5408 389.45 70.0939 389.391 70.647C389.374 71.2271 389.345 71.8071 389.298 72.4007C389.251 72.5828 389.216 72.7717 389.204 72.9673C389.029 75.0043 389.075 76.3668 389.345 77.0683C389.625 77.7563 390.047 77.9789 390.609 77.7428C391.17 77.5135 391.925 76.5219 392.879 74.775Z" fill="#551C1E"/>
<path d="M414.086 72.2117C414.321 72.1443 414.52 72.1173 414.695 72.1308C414.882 72.151 414.982 72.2252 414.999 72.3466C415.011 72.4748 414.859 72.6636 414.531 72.9132C414.391 73.0076 414.227 73.129 414.04 73.2909C413.384 73.8305 412.618 74.4241 411.746 75.0716C410.821 75.8136 409.978 76.4881 409.218 77.0951C408.451 77.6887 407.942 78.1474 407.696 78.4711C407.427 78.9028 407.257 79.3817 407.181 79.9011C407.117 80.4272 407.07 80.9938 407.041 81.6008C407.006 82.073 406.97 82.5384 406.924 83.0038C406.204 88.0559 405.004 92.3727 403.319 95.9543C401.645 99.5292 399.761 102.382 397.654 104.507C395.559 106.625 393.523 108.014 391.521 108.662C389.508 109.323 387.817 109.242 386.442 108.419C385.072 107.59 384.259 106.031 384.007 103.752C383.867 101.897 384.195 100.001 384.99 98.0588C385.786 96.1297 386.851 94.2815 388.174 92.5009C389.485 90.7336 390.883 89.1081 392.364 87.6174C393.833 86.1403 395.185 84.9194 396.437 83.9481C396.794 83.6581 397.163 83.368 397.537 83.0847C399.316 81.6818 401.118 80.326 402.944 79.0107C404.115 78.2553 404.659 77.1491 404.583 75.6922C404.583 75.5505 404.583 75.3347 404.583 75.0446C404.548 74.6332 404.536 74.1813 404.536 73.6956C403.834 74.9907 402.833 76.1643 401.54 77.2031C400.258 78.2485 398.947 78.9972 397.607 79.4424C396.261 79.8943 395.114 79.8674 394.166 79.3615C393.218 78.8623 392.715 77.7022 392.668 75.881C392.715 74.93 392.949 74.0666 393.37 73.2909C394.4 71.1865 395.834 69.5339 397.678 68.3265C398.362 67.8949 399.181 67.5913 400.135 67.4092C401.101 67.2136 402.037 67.2204 402.944 67.4362C403.846 67.652 404.571 68.1579 405.121 68.9471C405.244 68.6975 405.437 68.5356 405.706 68.4614C405.97 68.3738 406.21 68.3265 406.432 68.3265C406.479 68.3265 406.514 68.3265 406.549 68.3265C407.562 68.2186 408.036 68.7582 407.977 69.9454C407.942 70.7952 407.918 71.6384 407.907 72.4815C407.872 73.1155 407.842 73.7226 407.813 74.3162C407.842 75.0379 408.188 75.274 408.843 75.0177C409.499 74.7681 410.283 74.3431 411.207 73.7496C412.284 73.0346 413.244 72.522 414.086 72.2117ZM402.148 73.3988C403.284 72.0701 403.91 71.0448 404.021 70.3231C403.74 69.7498 403.307 69.4058 402.734 69.2978C402.154 69.1764 401.569 69.1832 400.978 69.3248C400.381 69.453 399.884 69.6621 399.48 69.9454C398.356 70.7548 397.525 71.7463 396.999 72.9132C396.466 74.0666 396.273 75.0581 396.414 75.881C396.554 76.7107 397.081 77.0007 398.005 76.7444C398.924 76.4746 400.305 75.3616 402.148 73.3988ZM403.67 82.761C403.67 82.7273 403.682 82.6935 403.717 82.6531C403.746 82.4777 403.775 82.2416 403.81 81.9516C403.84 81.6683 403.834 81.4322 403.787 81.2501C403.74 81.0747 403.635 81.0477 403.483 81.1691C402.342 82.0865 401.142 83.0915 399.878 84.1909C399.141 84.8182 398.45 85.3916 397.795 85.9177C396.87 86.7068 395.793 87.7321 394.564 88.9934C393.347 90.248 392.153 91.651 390.983 93.2023C389.801 94.7672 388.824 96.3658 388.057 98.0048C387.296 99.6371 386.91 101.202 386.91 102.699C386.992 104.838 387.513 106.126 388.478 106.558C389.432 107.003 390.632 106.746 392.083 105.775C393.523 104.804 395.009 103.226 396.554 101.054C398.111 98.8749 399.533 96.2309 400.814 93.1214C402.107 90.0254 403.061 86.5719 403.67 82.761Z" fill="#551C1E"/>
<path d="M96.2192 149.93H92.4271L90.3204 140.46C90.2385 140.122 90.0981 139.421 89.8991 138.355C89.7118 137.296 89.6006 136.588 89.5714 136.224C89.5363 136.676 89.4368 137.397 89.2671 138.382C89.0915 139.353 88.9628 140.055 88.8691 140.486L86.7624 149.93H82.9938L78.991 131.88H82.2681L84.2578 141.728C84.6148 143.549 84.8723 145.12 85.0303 146.449C85.0595 145.984 85.1531 145.262 85.3112 144.291C85.4633 143.306 85.6155 142.537 85.7559 141.997L88.0265 131.88H91.1631L93.4571 141.997C93.5507 142.449 93.6678 143.144 93.8082 144.075C93.9604 144.992 94.0774 145.788 94.1593 146.449C94.2354 145.822 94.3524 145.033 94.5104 144.075C94.6626 143.104 94.803 142.321 94.9318 141.728L96.9215 131.88H100.199L96.2192 149.93Z" fill="#551C1E"/>
<path d="M106.862 138.544C106.171 138.544 105.627 138.8 105.223 139.299C104.831 139.805 104.614 140.527 104.568 141.458H109.132C109.132 140.527 108.921 139.805 108.5 139.299C108.09 138.8 107.546 138.544 106.862 138.544ZM107.33 150.172C105.393 150.172 103.877 149.565 102.789 148.338C101.712 147.117 101.173 145.383 101.173 143.13C101.173 140.81 101.671 139.023 102.672 137.761C103.684 136.507 105.071 135.873 106.838 135.873C108.535 135.873 109.858 136.433 110.794 137.546C111.73 138.645 112.199 140.176 112.199 142.132V143.967H104.474C104.521 145.033 104.802 145.869 105.317 146.476C105.832 147.07 106.546 147.366 107.47 147.366C108.184 147.366 108.863 147.285 109.507 147.124C110.162 146.948 110.841 146.665 111.543 146.287V149.201C110.964 149.525 110.349 149.768 109.694 149.929C109.05 150.091 108.266 150.172 107.33 150.172Z" fill="#551C1E"/>
<path d="M118.646 150.172C117.242 150.172 116.13 149.545 115.322 148.284C114.527 147.029 114.129 145.282 114.129 143.05C114.129 140.783 114.532 139.023 115.346 137.761C116.171 136.507 117.3 135.873 118.74 135.873C120.238 135.873 121.385 136.547 122.181 137.896H122.298C122.122 136.871 122.04 135.954 122.04 135.144V130.72H125.318V149.929H122.813L122.181 148.149H122.04C121.303 149.498 120.174 150.172 118.646 150.172ZM119.793 147.177C120.636 147.177 121.25 146.901 121.642 146.341C122.029 145.788 122.239 144.83 122.275 143.481V143.076C122.275 141.606 122.07 140.54 121.666 139.893C121.274 139.245 120.636 138.922 119.746 138.922C119.009 138.922 118.441 139.286 118.038 140.001C117.628 140.722 117.429 141.754 117.429 143.103C117.429 144.452 117.628 145.471 118.038 146.152C118.459 146.84 119.044 147.177 119.793 147.177Z" fill="#551C1E"/>
<path d="M132.522 150.172C131.118 150.172 130.006 149.545 129.198 148.284C128.402 147.029 128.004 145.282 128.004 143.05C128.004 140.783 128.408 139.023 129.222 137.761C130.047 136.507 131.176 135.873 132.616 135.873C134.114 135.873 135.261 136.547 136.057 137.896H136.174C135.998 136.871 135.916 135.954 135.916 135.144V130.72H139.193V149.929H136.689L136.057 148.149H135.916C135.179 149.498 134.049 150.172 132.522 150.172ZM133.669 147.177C134.512 147.177 135.126 146.901 135.518 146.341C135.904 145.788 136.115 144.83 136.15 143.481V143.076C136.15 141.606 135.945 140.54 135.542 139.893C135.15 139.245 134.512 138.922 133.622 138.922C132.885 138.922 132.317 139.286 131.913 140.001C131.504 140.722 131.305 141.754 131.305 143.103C131.305 144.452 131.504 145.471 131.913 146.152C132.335 146.84 132.92 147.177 133.669 147.177Z" fill="#551C1E"/>
<path d="M142.465 132.554C142.465 131.333 143.056 130.72 144.244 130.72C145.427 130.72 146.023 131.333 146.023 132.554C146.023 133.148 145.871 133.606 145.579 133.93C145.28 134.254 144.835 134.416 144.244 134.416C143.056 134.416 142.465 133.795 142.465 132.554ZM145.883 149.929H142.606V136.116H145.883V149.929Z" fill="#551C1E"/>
<path d="M160.346 149.929H157.092V141.862C157.092 140.878 156.934 140.136 156.624 139.65C156.308 139.151 155.817 138.895 155.15 138.895C154.242 138.895 153.587 139.245 153.183 139.947C152.774 140.648 152.575 141.808 152.575 143.427V149.929H149.298V136.116H151.802L152.247 137.896H152.411C152.785 137.235 153.289 136.729 153.932 136.385C154.57 136.048 155.296 135.873 156.109 135.873C157.496 135.873 158.55 136.304 159.269 137.168C159.983 138.031 160.346 139.286 160.346 140.918V149.929Z" fill="#551C1E"/>
<path d="M174.125 136.116V138.031L172.253 138.598C172.592 139.212 172.768 139.906 172.768 140.675C172.768 142.152 172.311 143.306 171.41 144.129C170.52 144.958 169.28 145.37 167.688 145.37L167.103 145.343L166.635 145.289C166.289 145.579 166.12 145.903 166.12 146.26C166.12 146.8 166.717 147.07 167.922 147.07H169.959C171.269 147.07 172.264 147.407 172.955 148.068C173.64 148.715 173.985 149.673 173.985 150.928C173.985 152.526 173.4 153.767 172.229 154.651C171.071 155.548 169.403 156 167.22 156C165.546 156 164.271 155.663 163.381 155.002C162.503 154.334 162.07 153.39 162.07 152.169C162.07 151.339 162.287 150.644 162.726 150.091C163.176 149.538 163.837 149.14 164.715 148.904C164.388 148.729 164.095 148.459 163.849 148.095C163.598 147.717 163.475 147.312 163.475 146.881C163.475 146.361 163.603 145.93 163.873 145.586C164.136 145.228 164.516 144.884 165.02 144.56C164.376 144.237 163.873 143.737 163.498 143.049C163.135 142.348 162.96 141.532 162.96 140.594C162.96 139.083 163.381 137.923 164.224 137.114C165.078 136.291 166.295 135.873 167.875 135.873C168.215 135.873 168.613 135.913 169.069 135.981C169.537 136.055 169.83 136.102 169.959 136.116H174.125ZM164.903 151.872C164.903 152.391 165.113 152.796 165.535 153.086C165.968 153.39 166.576 153.545 167.36 153.545C168.531 153.545 169.444 153.356 170.099 152.978C170.766 152.614 171.106 152.115 171.106 151.467C171.106 150.941 170.907 150.584 170.52 150.388C170.128 150.186 169.52 150.091 168.695 150.091H167.009C166.401 150.091 165.892 150.253 165.488 150.577C165.096 150.914 164.903 151.346 164.903 151.872ZM166.073 140.648C166.073 141.404 166.219 141.997 166.518 142.429C166.81 142.861 167.267 143.076 167.875 143.076C168.496 143.076 168.952 142.861 169.233 142.429C169.514 141.997 169.654 141.404 169.654 140.648C169.654 138.996 169.057 138.166 167.875 138.166C166.67 138.166 166.073 138.996 166.073 140.648Z" fill="#551C1E"/>
<path d="M196.539 149.93H192.49L191.273 148.527C189.897 149.626 188.353 150.172 186.638 150.172C184.888 150.172 183.507 149.714 182.495 148.796C181.476 147.879 180.973 146.631 180.973 145.046C180.973 143.933 181.184 142.982 181.605 142.186C182.038 141.377 182.781 140.635 183.829 139.947C183.296 139.245 182.904 138.571 182.659 137.923C182.424 137.276 182.307 136.568 182.307 135.792C182.307 134.551 182.717 133.546 183.548 132.77C184.373 132.001 185.491 131.61 186.895 131.61C188.218 131.61 189.283 131.974 190.079 132.689C190.875 133.411 191.273 134.362 191.273 135.549C191.273 136.52 191.021 137.424 190.524 138.247C190.038 139.057 189.242 139.825 188.136 140.54L191.179 143.967C191.676 142.996 192.115 141.755 192.49 140.244H195.907C195.638 141.363 195.281 142.449 194.831 143.508C194.392 144.574 193.883 145.505 193.309 146.314L196.539 149.93ZM184.391 144.695C184.391 145.397 184.613 145.963 185.07 146.395C185.538 146.813 186.135 147.016 186.872 147.016C187.761 147.016 188.563 146.766 189.283 146.26L185.748 142.186C185.327 142.55 184.988 142.928 184.742 143.319C184.508 143.717 184.391 144.176 184.391 144.695ZM188.253 135.954C188.253 135.509 188.118 135.158 187.855 134.902C187.603 134.652 187.276 134.524 186.872 134.524C186.386 134.524 186.006 134.659 185.725 134.929C185.456 135.198 185.327 135.576 185.327 136.062C185.327 136.783 185.661 137.586 186.334 138.463C186.954 138.072 187.434 137.681 187.761 137.303C188.089 136.912 188.253 136.46 188.253 135.954Z" fill="#551C1E"/>
<path d="M213.203 149.93H204.191V131.88H213.203V135.01H207.515V138.976H212.806V142.105H207.515V146.773H213.203V149.93Z" fill="#551C1E"/>
<path d="M219.07 149.93L214.506 136.116H217.923L220.241 143.994C220.486 144.985 220.644 145.93 220.709 146.827H220.779C220.808 146.038 220.972 145.093 221.271 143.994L223.565 136.116H226.982L222.418 149.93H219.07Z" fill="#551C1E"/>
<path d="M233.65 138.544C232.96 138.544 232.416 138.8 232.012 139.299C231.62 139.805 231.403 140.527 231.356 141.458H235.921C235.921 140.527 235.71 139.805 235.289 139.299C234.879 138.8 234.335 138.544 233.65 138.544ZM234.118 150.172C232.181 150.172 230.666 149.565 229.577 148.338C228.501 147.117 227.962 145.383 227.962 143.13C227.962 140.81 228.46 139.023 229.46 137.761C230.473 136.507 231.86 135.873 233.627 135.873C235.324 135.873 236.647 136.433 237.583 137.546C238.519 138.645 238.987 140.176 238.987 142.132V143.967H231.263C231.31 145.033 231.59 145.869 232.105 146.476C232.62 147.07 233.334 147.366 234.259 147.366C234.973 147.366 235.652 147.285 236.295 147.124C236.951 146.948 237.63 146.665 238.332 146.287V149.201C237.753 149.525 237.138 149.768 236.483 149.929C235.839 150.091 235.055 150.172 234.118 150.172Z" fill="#551C1E"/>
<path d="M252.691 149.929H249.438V141.862C249.438 140.878 249.28 140.136 248.97 139.65C248.654 139.151 248.162 138.895 247.495 138.895C246.588 138.895 245.932 139.245 245.529 139.947C245.119 140.648 244.92 141.808 244.92 143.427V149.929H241.643V136.116H244.148L244.592 137.896H244.756C245.131 137.235 245.634 136.729 246.278 136.385C246.916 136.048 247.641 135.873 248.455 135.873C249.842 135.873 250.895 136.304 251.615 137.168C252.329 138.031 252.691 139.286 252.691 140.918V149.929Z" fill="#551C1E"/>
<path d="M261.11 147.178C261.672 147.178 262.357 147.036 263.17 146.746V149.552C262.339 149.963 261.333 150.172 260.151 150.172C258.851 150.172 257.903 149.795 257.295 149.039C256.698 148.284 256.405 147.144 256.405 145.613V138.949H254.86V137.357L256.639 136.116L257.599 133.202H259.682V136.116H263.03V138.949H259.682V145.613C259.682 146.152 259.805 146.55 260.057 146.8C260.32 147.056 260.671 147.178 261.11 147.178Z" fill="#551C1E"/>
<path d="M274.85 139.893H275.926C276.968 139.893 277.741 139.697 278.244 139.299C278.741 138.888 278.993 138.247 278.993 137.384C278.993 136.541 278.735 135.94 278.22 135.576C277.717 135.198 276.933 135.01 275.856 135.01H274.85V139.893ZM274.85 142.996V149.93H271.526V131.88H276.09C278.209 131.88 279.777 132.332 280.795 133.229C281.825 134.112 282.34 135.461 282.34 137.276C282.34 138.355 282.083 139.313 281.568 140.136C281.065 140.945 280.356 141.593 279.438 142.078C281.79 146.125 283.329 148.742 284.049 149.93H280.351L276.629 142.996H274.85Z" fill="#551C1E"/>
<path d="M290.706 138.544C290.016 138.544 289.472 138.8 289.068 139.299C288.676 139.805 288.459 140.527 288.412 141.458H292.977C292.977 140.527 292.766 139.805 292.345 139.299C291.935 138.8 291.391 138.544 290.706 138.544ZM291.174 150.172C289.237 150.172 287.722 149.565 286.633 148.338C285.557 147.117 285.018 145.383 285.018 143.13C285.018 140.81 285.516 139.023 286.516 137.761C287.529 136.507 288.916 135.873 290.683 135.873C292.38 135.873 293.703 136.433 294.639 137.546C295.575 138.645 296.043 140.176 296.043 142.132V143.967H288.319C288.366 145.033 288.646 145.869 289.161 146.476C289.676 147.07 290.39 147.366 291.315 147.366C292.029 147.366 292.708 147.285 293.351 147.124C294.007 146.948 294.686 146.665 295.388 146.287V149.201C294.809 149.525 294.194 149.768 293.539 149.929C292.895 150.091 292.111 150.172 291.174 150.172Z" fill="#551C1E"/>
<path d="M309.747 149.929H306.494V141.862C306.494 140.878 306.336 140.136 306.026 139.65C305.71 139.151 305.218 138.895 304.551 138.895C303.644 138.895 302.988 139.245 302.585 139.947C302.175 140.648 301.976 141.808 301.976 143.427V149.929H298.699V136.116H301.204L301.648 137.896H301.812C302.187 137.235 302.69 136.729 303.334 136.385C303.972 136.048 304.697 135.873 305.511 135.873C306.897 135.873 307.951 136.304 308.671 137.168C309.385 138.031 309.747 139.286 309.747 140.918V149.929Z" fill="#551C1E"/>
<path d="M318.166 147.178C318.728 147.178 319.413 147.036 320.226 146.746V149.552C319.395 149.963 318.389 150.172 317.207 150.172C315.907 150.172 314.959 149.795 314.351 149.039C313.754 148.284 313.461 147.144 313.461 145.613V138.949H311.916V137.357L313.695 136.116L314.655 133.202H316.738V136.116H320.086V138.949H316.738V145.613C316.738 146.152 316.861 146.55 317.113 146.8C317.376 147.056 317.727 147.178 318.166 147.178Z" fill="#551C1E"/>
<path d="M330.236 149.93L329.604 148.041H329.51C328.96 148.85 328.398 149.41 327.825 149.714C327.246 150.017 326.491 150.172 325.554 150.172C324.396 150.172 323.483 149.795 322.816 149.039C322.16 148.284 321.833 147.205 321.833 145.802C321.833 144.345 322.277 143.266 323.167 142.564C324.056 141.863 325.396 141.478 327.193 141.404L329.276 141.35V140.729C329.276 139.326 328.65 138.625 327.404 138.625C326.45 138.625 325.326 138.962 324.033 139.623L322.956 137.087C324.325 136.264 325.859 135.846 327.544 135.846C329.147 135.846 330.376 136.251 331.219 137.06C332.073 137.869 332.507 139.097 332.507 140.729V149.93H330.236ZM329.276 143.535L328.012 143.589C327.058 143.63 326.35 143.825 325.882 144.183C325.426 144.547 325.203 145.093 325.203 145.829C325.203 146.894 325.724 147.421 326.772 147.421C327.532 147.421 328.141 147.171 328.597 146.665C329.048 146.166 329.276 145.498 329.276 144.669V143.535Z" fill="#551C1E"/>
<path d="M339.15 149.929H335.873V130.72H339.15V149.929Z" fill="#551C1E"/>
<path d="M350.921 145.828C350.921 147.252 350.488 148.331 349.634 149.066C348.791 149.808 347.515 150.172 345.818 150.172C344.94 150.172 344.191 150.098 343.571 149.956C342.962 149.835 342.389 149.633 341.862 149.363V146.26C342.471 146.584 343.15 146.867 343.899 147.097C344.659 147.312 345.332 147.42 345.912 147.42C347.094 147.42 347.691 147.029 347.691 146.233C347.691 145.95 347.609 145.714 347.457 145.532C347.299 145.336 347.024 145.12 346.637 144.884C346.263 144.655 345.754 144.385 345.116 144.075C344.191 143.63 343.512 143.211 343.079 142.834C342.64 142.456 342.319 142.024 342.12 141.539C341.932 141.039 341.839 140.432 341.839 139.731C341.839 138.49 342.248 137.539 343.079 136.871C343.904 136.21 345.075 135.873 346.591 135.873C348.024 135.873 349.429 136.237 350.804 136.952L349.797 139.677C349.201 139.373 348.639 139.131 348.112 138.948C347.597 138.753 347.065 138.652 346.52 138.652C345.566 138.652 345.092 138.962 345.092 139.569C345.092 139.893 345.245 140.183 345.561 140.432C345.871 140.689 346.55 141.053 347.597 141.539C348.533 141.97 349.218 142.375 349.657 142.753C350.09 143.13 350.412 143.576 350.617 144.075C350.816 144.56 350.921 145.147 350.921 145.828Z" fill="#551C1E"/>
</svg>
